<svg data-v-423bf9ae="" xmlns="http://www.w3.org/2000/svg" viewBox="0 0 1970 1236" class="iconLeft"><!----><!----><!----><g data-v-423bf9ae="" id="2910e4e4-9db0-42fb-8c6e-82865b855763" fill="#FFFFFF" transform="matrix(6.32244483109513,0,0,6.32244483109513,1743.696553282746,565.4921161047471)"><path d="M4.20 3.54Q3.23 3.51 2.48 4.17Q1.73 4.83 1.16 5.80Q0.58 6.77 0.39 7.92Q0.21 9.06 0.53 9.99Q0.85 10.92 1.42 11.60Q2.00 12.28 2.82 12.57Q3.64 12.86 4.42 12.54Q5.20 12.22 6.06 11.03L6.06 11.03L5.78 10.75Q4.44 12.14 3.08 11.32Q1.72 10.49 1.30 8.87Q0.88 7.25 1.53 5.98Q2.18 4.71 3.28 4.50Q4.39 4.29 4.77 4.83Q5.15 5.37 4.86 5.63L4.86 5.63L4.97 5.74L5.89 5.09Q6.04 4.69 5.60 4.13Q5.16 3.56 4.20 3.54ZM9.02 6.45Q7.87 7.21 7.39 7.77Q6.92 8.33 6.73 8.89Q6.54 9.46 6.66 10.32Q6.79 11.17 7.66 11.96Q8.52 12.75 9.04 12.75Q9.56 12.76 10.68 11.73L10.68 11.73Q11.11 11.34 11.50 10.82Q11.89 10.31 12.01 9.74Q12.12 9.17 11.95 8.50Q11.77 7.83 10.96 7.04Q10.16 6.25 9.02 6.45L9.02 6.45ZM8.65 7.26Q9.44 7.08 10.38 8.24Q11.31 9.41 11.12 10.23Q10.92 11.06 10.26 11.56Q9.60 12.05 8.87 11.45Q8.13 10.84 7.69 10.15Q7.25 9.46 7.56 8.45Q7.87 7.43 8.65 7.26ZM17.42 3.49L17.42 3.49L16.45 4.12Q16.88 4.92 16.80 6.83L16.80 6.83Q16.24 6.51 15.80 6.55Q15.37 6.58 14.77 6.83Q14.16 7.09 13.54 7.69Q12.92 8.30 12.73 9.34Q12.54 10.39 13.26 11.52Q13.97 12.65 14.68 12.71Q15.39 12.78 16.84 11.28L16.84 11.28Q16.84 12.25 17.27 12.75L17.27 12.75L18.26 11.96Q17.71 11.50 17.83 7.76Q17.94 4.01 17.42 3.49ZM14.98 7.35Q16.14 7.18 16.47 8.34L16.47 8.34L16.80 8.05L16.79 10.73Q16.54 11.29 15.84 11.67Q15.14 12.04 14.37 10.87Q13.59 9.69 13.71 8.60Q13.82 7.51 14.98 7.35ZM22.07 6.60Q21 6.43 20.07 7.26Q19.14 8.09 18.88 9.20Q18.62 10.31 19.04 11.26Q19.46 12.22 20.60 12.62L20.60 12.62Q21.53 12.93 22.54 12.18Q23.54 11.43 23.65 10.84L23.65 10.84L23.45 10.68Q22.63 11.85 21.85 11.81Q21.07 11.76 20.68 11.46Q20.30 11.15 20.08 10.80L20.08 10.80L21.98 9.54Q23.42 8.65 23.28 7.70Q23.13 6.76 22.07 6.60ZM19.63 8.75Q19.64 8.12 20.15 7.58Q20.65 7.04 21.25 7.19Q21.85 7.34 22.08 8.00Q22.32 8.67 22.03 9.02Q21.73 9.37 19.91 10.40L19.91 10.40Q19.75 10.04 19.69 9.71Q19.63 9.37 19.63 8.75ZM24.88 11.34L23.97 12.09Q24.58 12.41 24.75 12.98L24.75 12.98L25.74 12.28Q25.48 11.56 24.88 11.34L24.88 11.34ZM27.45 3.55L26.18 4.59L26.28 4.81Q26.69 4.46 26.69 5.33L26.69 5.33Q26.61 11.50 26.73 11.98Q26.85 12.46 27.43 12.75L27.43 12.75L28.57 11.59L28.40 11.35Q28 11.83 27.88 11.27Q27.75 10.70 27.84 4.38L27.84 4.38Q27.74 3.83 27.45 3.55L27.45 3.55ZM30.51 6.39L29.16 7.22L29.25 7.33Q29.88 6.92 29.87 8.52L29.87 8.52Q29.80 11.43 29.89 11.88Q29.98 12.34 30.73 12.70L30.73 12.70L31.73 12.00L31.67 11.86Q31.12 12.18 30.99 11.16Q30.87 10.14 30.95 8.24L30.95 8.24Q32.26 6.81 33.22 7.10Q34.18 7.39 34.04 9.29L34.04 9.29Q34.00 11.34 34.05 11.83Q34.10 12.32 34.69 12.68L34.69 12.68L35.73 11.95L35.64 11.79Q35.16 12.04 35.10 11.10Q35.03 10.17 35.10 8.73L35.10 8.73Q35.14 7.85 34.88 7.26Q34.61 6.68 33.93 6.44Q33.26 6.20 32.44 6.55Q31.63 6.90 30.97 7.59L30.97 7.59Q31.04 6.75 30.51 6.39L30.51 6.39Z"></path></g><!----><g data-v-423bf9ae="" id="f8ef210c-a745-407f-a685-7fa6e289d0b3" transform="matrix(3.7045240614149306,0,0,3.7045240614149306,-63.055977354350034,-307.7080092569555)" stroke="none" fill="#81E291"><path d="M152.9 348.8C118.3 318 83.6 287.1 49 256.2c-5-4.4-10-8.9-14.9-13.3V257c34.6-30.9 69.3-61.7 103.9-92.6 5-4.4 10-8.9 14.9-13.3 9.6-8.6-4.6-22.7-14.1-14.1-34.6 30.9-69.3 61.7-103.9 92.6-5 4.4-10 8.9-14.9 13.3-3.9 3.5-3.9 10.7 0 14.1 34.6 30.9 69.3 61.7 103.9 92.6 5 4.4 10 8.9 14.9 13.3 9.6 8.6 23.7-5.5 14.1-14.1zM361.2 363c34.6-30.9 69.3-61.7 103.9-92.6 5-4.4 10-8.9 14.9-13.3 3.9-3.5 3.9-10.7 0-14.1-34.6-30.9-69.3-61.7-103.9-92.6-5-4.4-10-8.9-14.9-13.3-9.6-8.5-23.8 5.6-14.1 14.1 34.6 30.9 69.3 61.7 103.9 92.6 5 4.4 10 8.9 14.9 13.3V243c-34.6 30.9-69.3 61.7-103.9 92.6-5 4.4-10 8.9-14.9 13.3-9.6 8.5 4.5 22.6 14.1 14.1z"></path><g><path d="M300.5 90.6l-40.8 106.2c-21.5 56.1-43.1 112.2-64.6 168.3-5 13-10 25.9-14.9 38.9-1.9 5 2.1 11 7 12.3 5.6 1.5 10.4-1.9 12.3-7l40.8-106.2c21.5-56.1 43.1-112.2 64.6-168.3 5-13 10-25.9 14.9-38.9 1.9-5-2.1-11-7-12.3-5.6-1.5-10.3 2-12.3 7z"></path></g></g><!----></svg>