<svg data-v-423bf9ae="" xmlns="http://www.w3.org/2000/svg" viewBox="0 0 290.9107288617102 60" class="font"><!----><!----><!----><g data-v-423bf9ae="" id="0289095f-caf8-4378-9a45-32baf9b6fc33" fill="white" transform="matrix(5.410279456668789,0,0,5.410279456668789,-4.165917666188022,-14.553652524854876)"><path d="M9.04 11.63L9.04 12.72Q8.72 13.00 8.30 13.19Q7.88 13.39 7.43 13.52Q6.97 13.65 6.50 13.72Q6.03 13.78 5.60 13.78L5.60 13.78Q4.56 13.78 3.68 13.44Q2.80 13.09 2.15 12.46Q1.50 11.82 1.13 10.92Q0.77 10.03 0.77 8.92L0.77 8.92Q0.77 8.05 0.99 7.31Q1.21 6.58 1.60 5.97Q2.00 5.37 2.54 4.91Q3.08 4.44 3.71 4.13Q4.35 3.81 5.06 3.65Q5.76 3.49 6.49 3.49L6.49 3.49Q6.73 3.49 7.04 3.51Q7.35 3.53 7.69 3.57Q8.04 3.61 8.40 3.68Q8.76 3.75 9.11 3.84L9.11 3.84L8.76 5.46L8.62 5.51Q7.99 5.21 7.42 5.10Q6.86 4.98 6.42 4.98L6.42 4.98Q5.71 4.98 5.13 5.24Q4.55 5.50 4.13 5.96Q3.71 6.43 3.48 7.08Q3.25 7.72 3.25 8.52L3.25 8.52Q3.25 9.32 3.49 10.00Q3.73 10.67 4.18 11.16Q4.63 11.65 5.28 11.92Q5.93 12.19 6.77 12.19L6.77 12.19Q7.41 12.19 7.97 12.04Q8.52 11.89 9.04 11.63L9.04 11.63ZM13.94 13.78L13.94 13.78Q13.00 13.78 12.30 13.49Q11.60 13.20 11.14 12.71Q10.67 12.22 10.44 11.58Q10.21 10.93 10.21 10.22L10.21 10.22Q10.21 9.39 10.51 8.67Q10.81 7.94 11.36 7.41Q11.92 6.88 12.69 6.57Q13.47 6.26 14.43 6.26L14.43 6.26Q15.36 6.26 16.06 6.55Q16.76 6.84 17.23 7.32Q17.69 7.81 17.93 8.46Q18.16 9.11 18.16 9.84L18.16 9.84Q18.16 10.68 17.86 11.41Q17.55 12.13 16.99 12.66Q16.43 13.19 15.66 13.48Q14.88 13.78 13.94 13.78ZM14.23 12.31L14.23 12.31Q14.55 12.31 14.82 12.17Q15.09 12.04 15.29 11.76Q15.49 11.48 15.60 11.07Q15.72 10.66 15.72 10.12L15.72 10.12Q15.72 9.60 15.61 9.17Q15.50 8.73 15.30 8.41Q15.10 8.09 14.81 7.91Q14.52 7.73 14.14 7.73L14.14 7.73Q13.82 7.73 13.54 7.88Q13.27 8.03 13.07 8.31Q12.88 8.59 12.77 9.00Q12.66 9.41 12.66 9.94L12.66 9.94Q12.66 10.48 12.77 10.92Q12.88 11.35 13.08 11.67Q13.29 11.98 13.58 12.14Q13.87 12.31 14.23 12.31ZM24.61 11.51L24.61 7.95Q24.29 7.81 24.04 7.77Q23.79 7.73 23.63 7.73L23.63 7.73Q23.17 7.73 22.82 7.92Q22.48 8.11 22.25 8.44Q22.02 8.76 21.91 9.19Q21.79 9.63 21.79 10.10L21.79 10.10Q21.79 10.57 21.90 10.95Q22.00 11.33 22.19 11.61Q22.37 11.89 22.63 12.04Q22.89 12.19 23.21 12.19L23.21 12.19Q23.57 12.19 23.94 12.01Q24.31 11.83 24.61 11.51L24.61 11.51ZM24.61 6.41L24.61 2.69L26.99 2.69L26.99 13.64L24.96 13.64L24.69 12.52Q24.44 12.75 24.16 12.97Q23.88 13.20 23.57 13.38Q23.26 13.56 22.91 13.67Q22.57 13.78 22.17 13.78L22.17 13.78Q21.51 13.78 20.99 13.49Q20.47 13.20 20.11 12.72Q19.74 12.24 19.55 11.62Q19.36 11.01 19.36 10.35L19.36 10.35Q19.36 9.78 19.50 9.25Q19.65 8.72 19.91 8.27Q20.18 7.81 20.55 7.44Q20.92 7.08 21.38 6.81Q21.83 6.55 22.36 6.41Q22.88 6.26 23.45 6.26L23.45 6.26Q23.80 6.26 24.11 6.31Q24.42 6.36 24.61 6.41L24.61 6.41ZM35.38 11.87L35.38 12.89Q35.01 13.15 34.63 13.32Q34.24 13.49 33.86 13.60Q33.48 13.70 33.11 13.74Q32.74 13.78 32.40 13.78L32.40 13.78Q31.52 13.78 30.82 13.55Q30.11 13.31 29.62 12.87Q29.13 12.42 28.86 11.77Q28.60 11.12 28.60 10.29L28.60 10.29Q28.60 9.34 28.93 8.60Q29.26 7.85 29.81 7.33Q30.36 6.82 31.08 6.54Q31.81 6.26 32.60 6.26L32.60 6.26Q33.28 6.26 33.86 6.47Q34.44 6.69 34.86 7.10Q35.28 7.51 35.51 8.12Q35.75 8.74 35.75 9.54L35.75 9.54Q35.75 9.80 35.72 10.01Q35.70 10.23 35.66 10.38L35.66 10.38L31.04 10.38Q31.04 10.86 31.21 11.20Q31.38 11.54 31.69 11.76Q32.00 11.98 32.44 12.09Q32.87 12.19 33.41 12.19L33.41 12.19Q33.61 12.19 33.84 12.17Q34.08 12.16 34.33 12.12Q34.59 12.09 34.86 12.03Q35.12 11.97 35.38 11.87L35.38 11.87ZM31.04 9.54L33.59 9.54Q33.59 9.07 33.50 8.73Q33.41 8.39 33.24 8.17Q33.08 7.94 32.85 7.84Q32.63 7.73 32.36 7.73L32.36 7.73Q32.07 7.73 31.82 7.85Q31.58 7.98 31.41 8.21Q31.23 8.44 31.14 8.78Q31.04 9.11 31.04 9.54L31.04 9.54ZM38.86 13.78L38.86 13.78Q38.57 13.78 38.31 13.68Q38.06 13.57 37.86 13.38Q37.67 13.19 37.56 12.93Q37.45 12.67 37.45 12.37L37.45 12.37Q37.45 12.06 37.57 11.80Q37.69 11.53 37.89 11.34Q38.09 11.15 38.35 11.04Q38.62 10.93 38.90 10.93L38.90 10.93Q39.19 10.93 39.45 11.04Q39.70 11.15 39.89 11.34Q40.09 11.53 40.20 11.79Q40.30 12.05 40.30 12.35L40.30 12.35Q40.30 12.66 40.19 12.92Q40.07 13.19 39.86 13.38Q39.66 13.57 39.40 13.68Q39.14 13.78 38.86 13.78ZM45.06 3.63L45.06 13.64L42.64 13.64L42.64 3.63L45.06 3.63ZM47.32 13.64L47.32 6.40L49.32 6.40L49.61 7.59Q49.84 7.38 50.13 7.15Q50.42 6.92 50.76 6.72Q51.10 6.52 51.48 6.39Q51.86 6.26 52.28 6.26L52.28 6.26Q52.79 6.26 53.20 6.44Q53.61 6.62 53.91 6.95Q54.21 7.28 54.37 7.74Q54.54 8.20 54.54 8.76L54.54 8.76L54.54 13.64L52.16 13.64L52.16 9.11Q52.16 8.80 52.07 8.57Q51.99 8.33 51.84 8.18Q51.69 8.02 51.50 7.94Q51.30 7.86 51.07 7.86L51.07 7.86Q50.70 7.86 50.36 8.05Q50.02 8.23 49.69 8.51L49.69 8.51L49.69 13.64L47.32 13.64Z"></path></g><!----><!----></svg>